<svg xmlns="http://www.w3.org/2000/svg" fill="none" viewBox="0 0 250 250"><path fill="#EEE" d="M0 0h250v250H0V0Z"/><path fill="#fff" d="m59.5 52 140 140.1-7.4 7.5-13.7-13.7H71.8a10 10 0 0 1-7.3-3.2 10 10 0 0 1-3.1-7.3v-89c0-2.8 1-5.2 3.1-7.3 1.3-1.3 2.8-2.2 4.4-2.7L52 59.4l7.5-7.4Zm92.2 8.9 12.6 15h25.5c2.7 0 5.1 1.1 7.3 3.3a10 10 0 0 1 3.2 7.2v91.3l-10.5-10.2V86.4h-30.3l-12.7-15.1h-32l-9.7 11.4-7.3-7.3L110 61h41.7ZM78.9 86.4h-7.1v89H168l-20.3-20.2a29.5 29.5 0 0 1-44-35.4 28 28 0 0 1 3-5.5L79 86.3Zm35.5 35.4a17.5 17.5 0 0 0-2.5 9.4c0 5.2 1.8 9.6 5.6 13.3a18.2 18.2 0 0 0 22.5 3l-25.6-25.7Zm24.8-19a27.5 27.5 0 0 1 19.9 19.8 33 33 0 0 1 .5 14.6l-35-35c4.8-.8 9.8-.6 14.6.6Z"/></svg>
