<?xml version="1.0" encoding="UTF-8"?><svg xmlns="http://www.w3.org/2000/svg" viewBox="0 0 505 141"><desc>Softonic</desc><path fill="#fff" d="M170.8 62.5c-7-2.8-10.1-4.5-10.1-8.5 0-1.8.4-2.8 1.5-3.7 1.8-1.5 5.3-2.3 10-2.3a50.4 50.4 0 0 1 9.2.8 4.1 4.1 0 0 0 4-3.3v-.2c.3-2.3-1.3-4.3-3.4-4.6-2.4-.4-6-.8-9.9-.8-6.7 0-11.8 1.4-15.2 4.2-2.9 2.3-4.5 5.7-4.5 9.9 0 9.9 8.8 13.4 15.1 16l.2.1c7.6 3.2 11.9 5.2 11.9 11.4 0 2.8-.9 4.7-2.8 6-2 1.5-5.2 2.3-9.2 2.3-3.5 0-7.3-.6-10.8-1.6a4.3 4.3 0 0 0-1.2-.2 4 4 0 0 0-4 2.8 4 4 0 0 0 .4 3.1 4.1 4.1 0 0 0 2.5 2c2.4.8 7.4 2 13 2a24 24 0 0 0 14.3-3.8 15 15 0 0 0 5.9-12.6c0-12-9.8-16-17-19Zm63-20c-4.9-2.8-10.3-2.8-13-2.8-2.6 0-8 0-12.8 2.7-6 3.4-9.1 9.7-9.1 18.8v15.3c0 9 3 15.4 9 18.8a26.2 26.2 0 0 0 13 2.7c2.6 0 8 0 12.8-2.8 6-3.4 9.1-9.7 9.1-18.7V61.2c0-9-3-15.4-9-18.8Zm.9 18.7v15.3c0 11-5.3 13.3-13.8 13.3S207 87.6 207 76.5V61.2c0-11 5.3-13.3 13.9-13.3s13.8 2.2 13.8 13.3Zm127.4-18.8c-4.8-2.7-10.2-2.7-12.9-2.7-2.6 0-8 0-12.8 2.7-6 3.4-9.1 9.7-9.1 18.8v15.3c0 9 3 15.4 9 18.8 4.9 2.7 10.3 2.7 13 2.7 2.5 0 8 0 12.8-2.8 6-3.4 9.1-9.7 9.1-18.7V61.2c0-9-3-15.4-9-18.8Zm1 18.8v15.3c0 11-5.3 13.3-13.9 13.3-8.5 0-13.8-2.2-13.8-13.3V61.2c0-11 5.3-13.3 13.8-13.3 8.6 0 13.9 2.2 13.9 13.3Zm43.4-21.5a40 40 0 0 0-21.4 6c-1.5 1-1.4 2.7-1.4 2.7v45.5a4 4 0 0 0 4.1 4c2.3 0 4.2-1.8 4.2-4V51l.3-.1c3.8-2 8.5-3 14.2-3 5.5 0 9.2 1.2 11.2 3.4 2 2 3 5.5 3 10V94a4 4 0 0 0 4 4 4 4 0 0 0 4-4V61.3c0-6.6-1.6-12-4.7-15.5-3.7-4-9.6-6-17.5-6Zm38.7-19a5 5 0 0 0-5.1 5c0 2.9 2.3 5.2 5.1 5.2 2.9 0 5.3-2.4 5.3-5.2 0-2.8-2.4-5-5.3-5Zm0 19a4 4 0 0 0-4 4.1v50a4 4 0 0 0 4 4.2 4 4 0 0 0 4.1-4.1v-50c0-2.3-1.8-4.2-4-4.2Zm59.4 50a4 4 0 0 0-3.7-2.5 4 4 0 0 0-1.5.3h-.2a35.4 35.4 0 0 1-11.6 1.9c-8.2 0-18-3.7-18-21 0-17.2 9.8-20.8 18-20.8a32.8 32.8 0 0 1 11.7 1.8 4 4 0 0 0 1.6.3 4 4 0 0 0 3.7-2.4 4 4 0 0 0 .2-3.1 4 4 0 0 0-2.2-2.3 40 40 0 0 0-15-2.5c-4.3 0-10.6.8-16 4.8-6.8 4.8-10.3 13-10.3 24.3 0 11.2 3.5 19.4 10.2 24.2 5.5 4 11.8 4.8 16.1 4.8a43.8 43.8 0 0 0 15.1-2.5 4.4 4.4 0 0 0 2-2.3c.4-1 .4-2.1-.1-3Zm-189.7.2a17.3 17.3 0 0 0-.6 0c-3-.7-7-2.8-10-5.7-3.5-3.4-5.3-8.3-5.3-14.6V47.8h14.8c2.7 0 4.8-2.6 3.9-5.4a4.2 4.2 0 0 0-4-2.8H299V20.4c0-2.8-3-5.1-6-3.5a4.4 4.4 0 0 0-2 3.8v19h-27.1c.6-4 2.2-7.5 4.8-10a21 21 0 0 1 11.2-5.2 4 4 0 0 0 3.8-4c0-2.3-1.9-4.1-4.2-4.1h-.2c-4.4.6-11 2.4-16.3 7.4a27 27 0 0 0-7.7 19.9v50c0 2 1.3 3.8 3.3 4.2 2.6.5 5-1.5 5-4v-46h27.3v21.7a27 27 0 0 0 7.7 20.4c4.5 4.4 10 7 14.2 7.9 3 .5 5.5-2 5-4.8a4.1 4.1 0 0 0-3-3.2ZM112.2 70.1 94.4 52.6l12.8-12.7-35-34.6a16.8 16.8 0 0 0-23.7 0L5 48.4a16.4 16.4 0 0 0 0 23.4l22.2 22-12.9 12.6 30.6 30.2a16.8 16.8 0 0 0 23.7 0l43.7-43.1a16.4 16.4 0 0 0 0-23.4ZM10.7 66a8.4 8.4 0 0 1 0-12l43.7-43a8.5 8.5 0 0 1 6-2.5c2.3 0 4.4.9 6 2.5l29.2 28.8h-14l-48.7 48-22.2-21.8Zm95.6 21.6L62.7 131a8.5 8.5 0 0 1-6 2.4 8.5 8.5 0 0 1-6-2.4l-24.8-24.5 55.7-55 24.7 24.4a8.4 8.4 0 0 1 0 12Z"/></svg>
